HIERARCHY
ROOT Hips
{
	OFFSET 33.863875 79.607779 -0.217965
	CHANNELS 6 Xposition Yposition Zposition Zrotation Yrotation Xrotation 
	JOINT Chest
	{
		OFFSET -0.000014 7.851918 -0.000007
		CHANNELS 3 Zrotation Yrotation Xrotation
		JOINT Chest2
		{
			OFFSET 0.000012 22.389076 -0.000022
			CHANNELS 3 Zrotation Yrotation Xrotation
			JOINT Neck
			{
				OFFSET 0.000033 23.316023 -0.000010
				CHANNELS 3 Zrotation Yrotation Xrotation
				JOINT Head
				{
					OFFSET 0.000002 13.621833 1.826259
					CHANNELS 3 Zrotation Yrotation Xrotation
					End Site
					{
						OFFSET 0.000000 0.000000 0.000000
					}
				}
			}
			JOINT LeftCollar
			{
				OFFSET 3.648724 17.706114 -0.490934
				CHANNELS 3 Zrotation Yrotation Xrotation
				JOINT LeftShoulder
				{
					OFFSET 10.348048 0.000035 0.000007
					CHANNELS 3 Zrotation Yrotation Xrotation
					JOINT LeftElbow
					{
						OFFSET 26.736929 0.000012 0.000011
						CHANNELS 3 Zrotation Yrotation Xrotation
						JOINT LeftWrist
						{
							OFFSET 22.092764 0.000049 0.000007
							CHANNELS 3 Zrotation Yrotation Xrotation
							JOINT LeftFinger0
							{
								OFFSET 1.896455 -2.155119 3.017020
								CHANNELS 3 Zrotation Yrotation Xrotation
								JOINT LeftFinger01
								{
									OFFSET 2.864244 -0.000004 -0.000023
									CHANNELS 3 Zrotation Yrotation Xrotation
									JOINT LeftFinger02
									{
										OFFSET 2.448108 -0.000008 0.000015
										CHANNELS 3 Zrotation Yrotation Xrotation
										End Site
										{
											OFFSET 0.000000 0.000000 0.000000
										}
									}
								}
							}
							JOINT LeftFinger1
							{
								OFFSET 7.758459 0.000020 3.017056
								CHANNELS 3 Zrotation Yrotation Xrotation
								JOINT LeftFinger11
								{
									OFFSET 4.310181 -0.000025 0.000024
									CHANNELS 3 Zrotation Yrotation Xrotation
									JOINT LeftFinger12
									{
										OFFSET 2.155079 -0.000007 -0.000013
										CHANNELS 3 Zrotation Yrotation Xrotation
										End Site
										{
											OFFSET 0.000000 0.000000 0.000000
										}
									}
								}
							}
							JOINT LeftFinger2
							{
								OFFSET 7.758001 -0.000013 0.999950
								CHANNELS 3 Zrotation Yrotation Xrotation
								JOINT LeftFinger21
								{
									OFFSET 4.741099 -0.000010 -0.000026
									CHANNELS 3 Zrotation Yrotation Xrotation
									JOINT LeftFinger22
									{
										OFFSET 2.586244 -0.000014 0.000045
										CHANNELS 3 Zrotation Yrotation Xrotation
										End Site
										{
											OFFSET 0.000000 0.000000 0.000000
										}
									}
								}
							}
							JOINT LeftFinger3
							{
								OFFSET 7.327053 -0.000032 -0.999931
								CHANNELS 3 Zrotation Yrotation Xrotation
								JOINT LeftFinger31
								{
									OFFSET 4.310297 0.000014 0.000023
									CHANNELS 3 Zrotation Yrotation Xrotation
									JOINT LeftFinger32
									{
										OFFSET 2.155033 -0.000026 -0.000007
										CHANNELS 3 Zrotation Yrotation Xrotation
										End Site
										{
											OFFSET 0.000000 0.000000 0.000000
										}
									}
								}
							}
							JOINT LeftFinger4
							{
								OFFSET 6.895986 0.000015 -3.017105
								CHANNELS 3 Zrotation Yrotation Xrotation
								JOINT LeftFinger41
								{
									OFFSET 3.448330 0.000007 -0.000006
									CHANNELS 3 Zrotation Yrotation Xrotation
									JOINT LeftFinger42
									{
										OFFSET 1.724105 -0.000021 0.000009
										CHANNELS 3 Zrotation Yrotation Xrotation
										End Site
										{
											OFFSET 0.000000 0.000000 0.000000
										}
									}
								}
							}
						}
					}
				}
			}
			JOINT RightCollar
			{
				OFFSET -3.648844 17.705479 -0.490739
				CHANNELS 3 Zrotation Yrotation Xrotation
				JOINT RightShoulder
				{
					OFFSET -10.348236 -0.000022 0.000052
					CHANNELS 3 Zrotation Yrotation Xrotation
					JOINT RightElbow
					{
						OFFSET -26.738459 0.000011 -0.000016
						CHANNELS 3 Zrotation Yrotation Xrotation
						JOINT RightWrist
						{
							OFFSET -22.093737 0.000000 0.000049
							CHANNELS 3 Zrotation Yrotation Xrotation
							JOINT RightFinger0
							{
								OFFSET -1.896505 -2.155136 3.017196
								CHANNELS 3 Zrotation Yrotation Xrotation
								JOINT RightFinger01
								{
									OFFSET -2.864427 -0.000013 -0.000002
									CHANNELS 3 Zrotation Yrotation Xrotation
									JOINT RightFinger02
									{
										OFFSET -2.448345 0.000014 -0.000040
										CHANNELS 3 Zrotation Yrotation Xrotation
										End Site
										{
											OFFSET 0.000000 0.000000 0.000000
										}
									}
								}
							}
							JOINT RightFinger1
							{
								OFFSET -7.758431 -0.000007 3.017219
								CHANNELS 3 Zrotation Yrotation Xrotation
								JOINT RightFinger11
								{
									OFFSET -4.310093 0.000020 -0.000020
									CHANNELS 3 Zrotation Yrotation Xrotation
									JOINT RightFinger12
									{
										OFFSET -2.155087 0.000006 -0.000010
										CHANNELS 3 Zrotation Yrotation Xrotation
										End Site
										{
											OFFSET 0.000000 0.000000 0.000000
										}
									}
								}
							}
							JOINT RightFinger2
							{
								OFFSET -7.758370 0.000001 0.999953
								CHANNELS 3 Zrotation Yrotation Xrotation
								JOINT RightFinger21
								{
									OFFSET -4.741131 -0.000006 0.000014
									CHANNELS 3 Zrotation Yrotation Xrotation
									JOINT RightFinger22
									{
										OFFSET -2.585970 0.000006 0.000009
										CHANNELS 3 Zrotation Yrotation Xrotation
										End Site
										{
											OFFSET 0.000000 0.000000 0.000000
										}
									}
								}
							}
							JOINT RightFinger3
							{
								OFFSET -7.327120 0.000007 -0.999965
								CHANNELS 3 Zrotation Yrotation Xrotation
								JOINT RightFinger31
								{
									OFFSET -4.310278 -0.000035 0.000017
									CHANNELS 3 Zrotation Yrotation Xrotation
									JOINT RightFinger32
									{
										OFFSET -2.155075 0.000026 0.000009
										CHANNELS 3 Zrotation Yrotation Xrotation
										End Site
										{
											OFFSET 0.000000 0.000000 0.000000
										}
									}
								}
							}
							JOINT RightFinger4
							{
								OFFSET -6.896014 0.000031 -3.017050
								CHANNELS 3 Zrotation Yrotation Xrotation
								JOINT RightFinger41
								{
									OFFSET -3.448209 0.000012 0.000043
									CHANNELS 3 Zrotation Yrotation Xrotation
									JOINT RightFinger42
									{
										OFFSET -1.724081 0.000005 -0.000001
										CHANNELS 3 Zrotation Yrotation Xrotation
										End Site
										{
											OFFSET 0.000000 0.000000 0.000000
										}
									}
								}
							}
						}
					}
				}
			}
		}
	}
	JOINT LeftHip
	{
		OFFSET 9.131313 -0.000017 0.000032
		CHANNELS 3 Zrotation Yrotation Xrotation
		JOINT LeftKnee
		{
			OFFSET 0.000031 -36.872204 0.000001
			CHANNELS 3 Zrotation Yrotation Xrotation
			JOINT LeftAnkle
			{
				OFFSET -0.000004 -36.711002 0.000063
				CHANNELS 3 Zrotation Yrotation Xrotation
				JOINT LeftToe
				{
					OFFSET -0.000036 -5.935429 13.696634
					CHANNELS 3 Zrotation Yrotation Xrotation
					End Site
					{
						OFFSET 0.000000 0.000000 0.000000
					}
				}
			}
		}
	}
	JOINT RightHip
	{
		OFFSET -9.131631 -0.000013 -0.000016
		CHANNELS 3 Zrotation Yrotation Xrotation
		JOINT RightKnee
		{
			OFFSET -0.000015 -36.868404 -0.000001
			CHANNELS 3 Zrotation Yrotation Xrotation
			JOINT RightAnkle
			{
				OFFSET 0.000047 -36.711498 0.000005
				CHANNELS 3 Zrotation Yrotation Xrotation
				JOINT RightToe
				{
					OFFSET 0.000025 -5.935167 13.696882
					CHANNELS 3 Zrotation Yrotation Xrotation
					End Site
					{
						OFFSET 0.000000 0.000000 0.000000
					}
				}
			}
		}
	}
}
MOTION
Frames: 4
Frame Time: 0.050000
33.863875 79.607779 -0.217965 -0.686567 11.962416 -1.620987 0.001511 -0.647366 -10.632887 0.237678 -0.722766 12.294782 2.671175 0.930173 15.912923 -2.046644 1.728821 -1.039578 3.167142 -5.306373 0.735314 -78.728249 -3.030063 9.234120 -0.000922 -11.110930 -38.941807 1.524106 10.454156 -4.813085 -28.150303 -37.538029 58.587975 -21.143806 19.811737 -3.731152 -22.722376 21.133467 40.757290 -15.536689 -7.069738 16.913387 -40.988064 -13.926027 7.770766 -33.630264 -13.419517 6.573013 -8.061901 -9.382035 -2.980649 -44.865276 -1.651282 2.133897 -35.471085 -2.181464 2.361238 -16.999681 -8.249501 -2.163421 -36.386292 -0.691459 0.339064 -24.282701 -0.542503 0.242255 -6.157345 -5.283232 -21.836674 -20.642839 7.394300 -4.672740 -12.783557 5.453588 -3.896753 5.059371 -0.739317 2.326077 67.957565 8.987182 22.030033 0.001754 12.221722 -23.957478 4.826148 -16.052763 -1.481861 24.803949 40.311611 51.546455 19.644590 -18.563494 -3.242339 20.129240 -18.994755 41.649227 31.254158 0.788173 18.949476 30.723040 10.384998 4.623725 22.149567 8.403695 3.295849 21.858307 4.452236 -0.301027 26.690075 0.593155 0.843999 17.795008 0.600713 0.806595 24.121784 3.437018 0.261196 22.729874 0.216536 -0.158227 14.482316 0.098646 -0.190263 15.246771 0.910763 -14.325986 17.710270 -4.651198 1.648679 11.445809 -2.543723 2.102115 1.915856 -0.337493 -2.098155 0.001204 -0.001392 11.889956 -1.238005 -6.859357 -9.019491 0.000472 -0.001591 -0.220351 2.146766 -7.702794 0.883110 -0.001597 -0.001307 11.658405 1.213285 -4.909342 -11.360834 0.000118 0.000710 -0.017602 
33.881454 79.608324 -0.120206 -0.726448 12.000405 -1.607573 0.000926 -0.549535 -10.903873 0.167335 -0.609873 11.964286 2.828327 0.802070 15.904637 -2.111681 1.673264 0.323558 3.208454 -5.082221 0.645714 -78.799179 -2.944120 9.260401 -0.000572 -10.771169 -39.204708 1.055243 10.798384 -4.767764 -28.143530 -37.534893 58.625397 -21.156731 19.817686 -3.733990 -22.746363 21.153461 40.751400 -15.915204 -7.022738 16.938742 -41.017815 -13.939203 7.791385 -33.519176 -13.404822 6.556120 -8.145735 -9.374775 -2.967307 -44.930782 -1.662551 2.150558 -35.529430 -2.198447 2.377797 -17.014675 -8.245236 -2.167001 -36.444984 -0.695449 0.341783 -24.311733 -0.545199 0.243965 -6.179950 -5.266670 -21.819691 -20.585812 7.379148 -4.658601 -12.757332 5.439214 -3.891948 5.046104 -0.906096 2.185898 68.139244 8.788737 21.956255 0.001685 11.844520 -23.929090 5.023258 -16.067604 -1.520223 24.820234 40.327660 51.546104 19.642445 -18.562117 -3.240217 20.126968 -18.993298 41.650433 31.173071 0.797998 18.944668 30.782585 10.403002 4.638532 22.218859 8.420858 3.306540 21.767763 4.460647 -0.315440 26.666327 0.588610 0.829366 17.769865 0.593072 0.791781 24.033449 3.431497 0.261271 22.756128 0.216728 -0.158117 14.504686 0.099130 -0.189761 15.225444 0.918488 -14.322318 17.796083 -4.670909 1.642061 11.497265 -2.552394 2.100579 1.954949 -0.279825 -2.003215 0.000800 -0.000962 11.795926 -1.245995 -6.818534 -9.023630 0.000396 -0.001129 -0.227426 2.207364 -7.800807 1.058375 -0.001740 -0.001147 11.451319 1.203123 -4.826699 -11.342425 0.000435 0.000648 -0.025178 
33.897880 79.609663 -0.040488 -0.760420 12.037214 -1.602908 0.000430 -0.470083 -11.114008 0.110884 -0.518253 11.704267 2.948917 0.681792 15.855797 -2.164754 1.605406 1.332359 3.244610 -4.908618 0.576914 -78.852219 -2.886077 9.307804 -0.000261 -10.508039 -39.439754 0.717631 11.058722 -4.730318 -28.137859 -37.532516 58.660934 -21.169947 19.824692 -3.736862 -22.770924 21.173691 40.744850 -16.279230 -6.977923 16.962584 -41.049263 -13.952483 7.811839 -33.413483 -13.391127 6.540065 -8.238458 -9.366244 -2.954727 -45.006207 -1.673002 2.166138 -35.596554 -2.215175 2.393332 -17.039782 -8.241124 -2.169163 -36.513165 -0.699907 0.345606 -24.352194 -0.548882 0.246877 -6.196813 -5.251215 -21.804590 -20.537739 7.366758 -4.647129 -12.735991 5.427407 -3.888623 5.033793 -1.029706 2.080254 68.274147 8.644320 21.948446 0.001613 11.536460 -23.908518 5.189804 -16.067524 -1.553929 24.835056 40.343746 51.545834 19.641060 -18.561430 -3.238447 20.126226 -18.992975 41.651062 31.107740 0.803871 18.941353 30.839781 10.420610 4.652862 22.278065 8.436420 3.315802 21.695745 4.464527 -0.326350 26.647173 0.584975 0.817122 17.749609 0.586848 0.779372 23.961470 3.425032 0.262021 22.779516 0.216962 -0.157986 14.524620 0.099681 -0.189289 15.207420 0.926760 -14.319452 17.879313 -4.690490 1.634770 11.547197 -2.561573 2.098230 1.986074 -0.238773 -1.932193 0.000472 -0.000623 11.725636 -1.250445 -6.787801 -9.029537 0.000339 -0.000762 -0.234032 2.258160 -7.879996 1.195991 -0.001832 -0.001029 11.288980 1.191131 -4.765626 -11.330158 0.000722 0.000616 -0.032248 
33.913111 79.611796 0.021193 -0.788478 12.072845 -1.606978 0.000026 -0.409009 -11.263288 0.068325 -0.447906 11.514713 3.032952 0.569340 15.766456 -2.205867 1.525245 1.990770 3.275623 -4.785559 0.528904 -78.887367 -2.855936 9.376317 0.000010 -10.321512 -39.646408 0.511449 11.235889 -4.700641 -28.133268 -37.530891 58.694557 -21.183445 19.832754 -3.739769 -22.796055 21.194155 40.737625 -16.628767 -6.935331 16.984983 -41.082405 -13.965862 7.832131 -33.313187 -13.378435 6.524849 -8.340073 -9.356439 -2.942903 -45.091564 -1.682633 2.180634 -35.672478 -2.231648 2.407843 -17.075001 -8.237159 -2.169904 -36.590839 -0.704832 0.350533 -24.404085 -0.553550 0.250992 -6.207935 -5.236872 -21.791393 -20.498632 7.357135 -4.638330 -12.719530 5.418166 -3.886775 5.022439 -1.110155 2.009120 68.362427 8.553954 22.006578 0.001536 11.297551 -23.895344 5.325748 -16.052599 -1.582974 24.848438 40.359901 51.545654 19.640444 -18.561445 -3.237034 20.127016 -18.993786 41.651142 31.058167 0.805795 18.939552 30.894625 10.437831 4.666717 22.327175 8.450382 3.323637 21.642248 4.463879 -0.333758 26.632603 0.582250 0.807266 17.734240 0.582044 0.769368 23.905851 3.417627 0.263445 22.800041 0.217239 -0.157834 14.542123 0.100298 -0.188848 15.192703 0.935580 -14.317392 17.959953 -4.709940 1.626805 11.595607 -2.571258 2.095065 2.009232 -0.214335 -1.885086 0.000219 -0.000375 11.679089 -1.251354 -6.767160 -9.037209 0.000301 -0.000492 -0.240171 2.299139 -7.940367 1.295961 -0.001874 -0.000953 11.171391 1.177310 -4.726122 -11.324013 0.000979 0.000614 -0.038812 
